<svg xmlns="http://www.w3.org/2000/svg" viewBox="0 0 1600 420" preserveAspectRatio="xMidYMid slice">
  <defs>
    <linearGradient id="bg" x1="0" y1="0" x2="1" y2="1">
      <stop offset="0" stop-color="#052e16"/>
      <stop offset="0.55" stop-color="#15803d"/>
      <stop offset="1" stop-color="#86efac"/>
    </linearGradient>
    <radialGradient id="glow" cx="50%" cy="50%" r="50%">
      <stop offset="0" stop-color="#bbf7d0" stop-opacity="0.8"/>
      <stop offset="1" stop-color="#bbf7d0" stop-opacity="0"/>
    </radialGradient>
  </defs>
  <rect width="1600" height="420" fill="url(#bg)"/>
  <circle cx="800" cy="210" r="360" fill="url(#glow)" opacity="0.62"/>
  <g fill="none" stroke="#dcfce7" stroke-width="8" opacity="0.42">
    <path d="M800 20 990 210 800 400 610 210z"/>
    <path d="M800 72 938 210 800 348 662 210z"/>
    <path d="M800 124 886 210 800 296 714 210z"/>
    <path d="M800 176 834 210 800 244 766 210z"/>
  </g>
  <g fill="none" stroke="#064e3b" stroke-width="4" opacity="0.18">
    <path d="M270 50 430 210 270 370 110 210z"/>
    <path d="M1330 50 1490 210 1330 370 1170 210z"/>
  </g>
</svg>
